<svg width="143" height="143" viewBox="0 0 143 143" fill="none" xmlns="http://www.w3.org/2000/svg">
<rect x="92.9956" y="105" width="36" height="35" fill="#1231D4"/>
<path d="M109.921 99.8735L76.9217 136.78C75.4631 138.411 73.389 139.372 71.1558 139.451C68.9225 139.53 66.7131 138.721 65.0135 137.201L7.33729 85.6315C5.63766 84.1118 4.58709 82.0063 4.41668 79.7782C4.24627 77.5501 4.96999 75.3818 6.42863 73.7505L39.4274 36.8441C40.8861 35.2127 42.9601 34.2519 45.1934 34.1729C47.4266 34.0939 49.6361 34.9033 51.3357 36.423L60.9484 45.0179C61.7982 45.7777 62.3235 46.8305 62.4087 47.9445C62.4939 49.0586 62.132 50.1427 61.4027 50.9584C60.6734 51.7741 59.6364 52.2545 58.5197 52.294C57.4031 52.3335 26.5038 91.7002 25.654 90.9403L45.8359 42.574L12.8371 79.4804L70.5133 131.05L103.512 94.1436L53.0027 115.393C52.1529 114.634 92.5243 83.7361 92.4391 82.622C92.3538 81.5079 92.7157 80.4238 93.445 79.6081C94.1743 78.7925 95.2114 78.312 96.328 78.2725C97.4446 78.2331 98.5493 78.6377 99.3992 79.3976L109.012 87.9925C110.711 89.5122 111.762 91.6177 111.932 93.8458C112.103 96.0739 111.379 98.2421 109.921 99.8735ZM75.4737 39.7837L81.4175 45.0982L63.22 74.7204C62.4907 75.5361 62.1289 76.6202 62.2141 77.7343C62.2993 78.8484 62.8246 79.9011 63.6744 80.6609C64.5242 81.4208 65.6289 81.8255 66.7455 81.786C67.8621 81.7465 68.8992 81.2661 69.6285 80.4504L96.4325 60.1453L102.982 64.3795C103.067 65.4941 103.593 66.5475 104.443 67.3077C105.293 68.068 106.399 68.4729 107.516 68.4334C108.633 68.3939 109.671 67.9132 110.401 67.0971C111.13 66.2809 111.492 65.1962 111.407 64.0815L109.135 34.379C109.094 33.827 108.943 33.2841 108.692 32.7816C109.113 33.1581 108.442 32.279 108.692 32.7816C108.271 32.4051 106.766 30.7804 106.238 30.5873C105.711 30.3943 105.155 30.3052 104.601 30.3251L74.8308 31.3778C73.7135 31.4174 72.6759 31.898 71.9462 32.7142C71.2165 33.5303 70.8544 34.615 70.9397 35.7297C71.0249 36.8444 71.5505 37.8977 72.4008 38.658C73.2511 39.4183 74.3564 39.8232 75.4737 39.7837Z" fill="#1231D4"/>
</svg>
