<svg width="85" height="150" viewBox="0 0 85 150" fill="none" xmlns="http://www.w3.org/2000/svg">
<path d="M85 91C85 97.0751 80.0751 102 74 102C67.9249 102 63 97.0751 63 91C63 84.9249 67.9249 80 74 80C80.0751 80 85 84.9249 85 91Z" fill="#FF6262"/>
<path d="M26.04 28.92C31.4 26.92 36.24 26.04 40.56 26.28C44.96 26.52 48.88 27.64 52.32 29.64C55.76 31.56 58.68 34.16 61.08 37.44C63.56 40.72 65.56 44.4 67.08 48.48C68.28 51.52 69.2 54.72 69.84 58.08C70.48 61.44 70.84 64.8 70.92 68.16C71.08 71.44 70.96 74.68 70.56 77.88C70.24 81.08 69.68 84.04 68.88 86.76C68.4 88.6 67.84 90.28 67.2 91.8C66.56 93.32 65.8 94.84 64.92 96.36C62.92 99.8 60.32 102.6 57.12 104.76C54 106.92 50.56 108.44 46.8 109.32C44.24 109.96 41.6 110.28 38.88 110.28C36.16 110.2 33.48 109.84 30.84 109.2C28.2 108.48 25.64 107.48 23.16 106.2C20.76 104.84 18.56 103.16 16.56 101.16C14.08 98.76 12.04 96 10.44 92.88C8.84 89.68 7.6 86.36 6.72 82.92C5.84 79.4 5.28 75.88 5.04 72.36C4.8 68.84 4.8 65.48 5.04 62.28C5.28 59.32 5.84 56.16 6.72 52.8C7.68 49.44 9.04 46.2 10.8 43.08C12.56 39.96 14.68 37.16 17.16 34.68C19.72 32.12 22.68 30.2 26.04 28.92ZM54.12 80.28C55.08 76.52 55.48 72.28 55.32 67.56C55.16 62.84 54.4 58.4 53.04 54.24C52.16 51.68 51.04 49.44 49.68 47.52C48.4 45.52 46.84 44 45 42.96C43.24 41.92 41.16 41.4 38.76 41.4C36.36 41.4 33.68 42.12 30.72 43.56C28.96 44.44 27.44 45.64 26.16 47.16C24.96 48.68 23.96 50.4 23.16 52.32C22.44 54.24 21.84 56.24 21.36 58.32C20.96 60.4 20.72 62.4 20.64 64.32C20.48 66.4 20.44 68.6 20.52 70.92C20.6 73.16 20.84 75.44 21.24 77.76C21.72 80 22.36 82.16 23.16 84.24C23.96 86.24 25.04 88.04 26.4 89.64C28.48 92.04 30.88 93.72 33.6 94.68C36.4 95.56 39.16 95.68 41.88 95.04C46.28 94.08 49.64 91.16 51.96 86.28C52.92 84.52 53.64 82.52 54.12 80.28Z" fill="#5B5B5B"/>
</svg>
