<svg width="159" height="126" viewBox="0 0 159 126" fill="none" xmlns="http://www.w3.org/2000/svg">
<rect width="159" height="126" fill="#222222"/>
<path d="M67.1 25.91C68.29 25.4567 69.9617 25.23 72.115 25.23C74.2683 25.23 76.195 25.3717 77.895 25.655C76.1383 38.6883 74.75 50.5033 73.73 61.1C72.7667 71.64 72.2283 77.1933 72.115 77.76C72.0583 78.3267 72.03 78.8367 72.03 79.29C72.0867 80.7633 72.795 81.5 74.155 81.5C77.555 81.5 82.2867 77.59 88.35 69.77C89.4267 72.7733 90.05 74.785 90.22 75.805C87.5 80.1117 84.2133 83.6533 80.36 86.43C76.5633 89.15 72.965 90.51 69.565 90.51C66.165 90.51 63.8133 89.6317 62.51 87.875C61.2067 86.1183 60.555 84.1633 60.555 82.01C60.555 81.5 60.6117 80.5083 60.725 79.035C60.895 77.5617 62.0283 68.3817 64.125 51.495L50.185 83.71H42.96L38.795 52.005L32.845 78.355C31.8817 82.5483 30.295 85.6367 28.085 87.62C25.9317 89.6033 23.5517 90.595 20.945 90.595C18.3383 90.595 16.2133 89.83 14.57 88.3C12.8133 86.6567 11.935 84.3333 11.935 81.33C11.935 75.3233 16.5817 70.195 25.875 65.945C30.9183 41.7483 33.6383 28.3467 34.035 25.74C35.395 25.4 37.2083 25.23 39.475 25.23C41.7983 25.23 43.385 25.2867 44.235 25.4H44.83L50.1 64.925L67.1 26.335V25.91ZM17.97 79.885C17.97 81.6983 18.6783 82.605 20.095 82.605C21.0583 82.605 21.8517 81.84 22.475 80.31C23.2683 78.44 23.92 75.975 24.43 72.915C20.1233 75.3517 17.97 77.675 17.97 79.885ZM106.588 90L109.818 61.78C109.818 60.1933 109.422 58.89 108.628 57.87C107.892 56.7933 106.56 56.255 104.633 56.255C102.707 56.255 101.12 57.19 99.8735 59.06C98.6268 60.8733 97.8335 62.8 97.4935 64.84C95.5101 78.95 94.4051 87.3367 94.1785 90H82.7885L87.4635 50.05C89.8435 49.4267 91.6568 49.115 92.9035 49.115C96.4735 49.115 98.4285 50.305 98.7685 52.685C101.545 50.305 104.577 49.115 107.863 49.115C114.437 49.115 118.63 51.07 120.443 54.98C123.22 51.0133 127.187 49.03 132.343 49.03C136.14 49.03 139.143 50.0217 141.353 52.005C143.563 53.9317 144.668 56.3683 144.668 59.315C144.668 60.165 144.498 61.6667 144.158 63.82C142.855 72.32 142.203 77.3067 142.203 78.78C142.203 81.4433 143.082 82.775 144.838 82.775C146.312 82.775 147.87 81.8117 149.513 79.885C151.213 77.9017 152.573 74.87 153.593 70.79C155.52 72.83 156.682 74.445 157.078 75.635C154.132 85.495 148.918 90.425 141.438 90.425C137.925 90.425 135.318 89.3483 133.618 87.195C131.918 85.0417 131.068 82.775 131.068 80.395L133.108 61.61C133.108 60.08 132.712 58.805 131.918 57.785C131.125 56.765 129.85 56.255 128.093 56.255C126.393 56.255 124.892 56.9067 123.588 58.21C122.285 59.5133 121.378 61.185 120.868 63.225C119.168 77.6183 118.063 86.5433 117.553 90H106.588Z" fill="white"/>
</svg>
