<svg xmlns="http://www.w3.org/2000/svg" xmlns:xlink="http://www.w3.org/1999/xlink" width="39px" height="24px" viewBox="0 0 39 24"><title>5C028A5E-F2DE-48CA-A420-8A82D6792F10</title><defs><polygon id="path-1" points="0 0 0 18 39 18 39 0 3.23391047e-18 0"></polygon></defs><g id="Symbols" stroke="none" stroke-width="1" fill="none" fill-rule="evenodd"><g id="organisms/footer@desktop" transform="translate(-403.000000, -669.000000)"><g id="atoms/icon--logo--netz--circles-only" transform="translate(403.000000, 669.983529)"><g id="Group-6" transform="translate(0.000000, 2.000000)"><mask id="mask-2" fill="white"><use xlink:href="#path-1"></use></mask><g id="Clip-4"></g><path d="M21.0548392,10.4915698 C21.7755165,14.7506759 25.5128165,18 30.0276526,18 C34.5423334,18 38.2796334,14.7506759 39,10.4915698 L34.2232406,10.4915698 C33.6033867,12.1919885 31.9616281,13.4096216 30.0276526,13.4096216 C28.0932111,13.4096216 26.4519186,12.1919885 25.8320646,10.4915698 L21.0548392,10.4915698 Z M39,7.5084302 C38.2796334,3.2487101 34.5423334,0 30.0276526,0 C25.5128165,0 21.7755165,3.2487101 21.0548392,7.5084302 L25.8320646,7.5084302 C26.4519186,5.80739743 28.0932111,4.58976436 30.0276526,4.58976436 C31.9616281,4.58976436 33.6033867,5.80739743 34.2232406,7.5084302 L39,7.5084302 L39,7.5084302 Z" id="Fill-3" fill="#FFFFFF" mask="url(#mask-2)"></path><path d="M7.47226969,0.110679959 C3.21966755,0.869167726 -0.00932111232,4.53787834 -0.00932111232,8.95955039 C-0.00932111232,13.3799944 3.21966755,17.049319 7.47226969,17.8078068 L7.47226969,13.0633054 C5.81295635,12.4193353 4.63601056,10.8269869 4.63601056,8.95955039 C4.63601056,7.09119285 5.81295635,5.49838389 7.47226969,4.85518135 L7.47226969,0.110679959 Z M10.7247165,17.8078068 C14.9777847,17.049319 18.206618,13.3799944 18.206618,8.95955039 C18.206618,4.53787834 14.9777847,0.869167726 10.7247165,0.110679959 L10.7247165,4.85518135 C12.3844959,5.49838389 13.561597,7.09119285 13.561597,8.95955039 C13.561597,10.8269869 12.3844959,12.4193353 10.7247165,13.0633054 L10.7247165,17.8078068 L10.7247165,17.8078068 Z" id="Fill-5" fill="#FFFFFF" mask="url(#mask-2)"></path></g></g></g></g></svg>