<svg width="153" height="108" viewBox="0 0 153 108" fill="none" xmlns="http://www.w3.org/2000/svg">
<rect width="153" height="108" fill="#0E2127"/>
<path d="M120 78C120 84.0751 115.075 89 109 89C102.925 89 98 84.0751 98 78C98 71.9249 102.925 67 109 67C115.075 67 120 71.9249 120 78Z" fill="#FF6262"/>
<path d="M59.04 13.92C64.4 11.92 69.24 11.04 73.56 11.28C77.96 11.52 81.88 12.64 85.32 14.64C88.76 16.56 91.68 19.16 94.08 22.44C96.56 25.72 98.56 29.4 100.08 33.48C101.28 36.52 102.2 39.72 102.84 43.08C103.48 46.44 103.84 49.8 103.92 53.16C104.08 56.44 103.96 59.68 103.56 62.88C103.24 66.08 102.68 69.04 101.88 71.76C101.4 73.6 100.84 75.28 100.2 76.8C99.56 78.32 98.8 79.84 97.92 81.36C95.92 84.8 93.32 87.6 90.12 89.76C87 91.92 83.56 93.44 79.8 94.32C77.24 94.96 74.6 95.28 71.88 95.28C69.16 95.2 66.48 94.84 63.84 94.2C61.2 93.48 58.64 92.48 56.16 91.2C53.76 89.84 51.56 88.16 49.56 86.16C47.08 83.76 45.04 81 43.44 77.88C41.84 74.68 40.6 71.36 39.72 67.92C38.84 64.4 38.28 60.88 38.04 57.36C37.8 53.84 37.8 50.48 38.04 47.28C38.28 44.32 38.84 41.16 39.72 37.8C40.68 34.44 42.04 31.2 43.8 28.08C45.56 24.96 47.68 22.16 50.16 19.68C52.72 17.12 55.68 15.2 59.04 13.92ZM87.12 65.28C88.08 61.52 88.48 57.28 88.32 52.56C88.16 47.84 87.4 43.4 86.04 39.24C85.16 36.68 84.04 34.44 82.68 32.52C81.4 30.52 79.84 29 78 27.96C76.24 26.92 74.16 26.4 71.76 26.4C69.36 26.4 66.68 27.12 63.72 28.56C61.96 29.44 60.44 30.64 59.16 32.16C57.96 33.68 56.96 35.4 56.16 37.32C55.44 39.24 54.84 41.24 54.36 43.32C53.96 45.4 53.72 47.4 53.64 49.32C53.48 51.4 53.44 53.6 53.52 55.92C53.6 58.16 53.84 60.44 54.24 62.76C54.72 65 55.36 67.16 56.16 69.24C56.96 71.24 58.04 73.04 59.4 74.64C61.48 77.04 63.88 78.72 66.6 79.68C69.4 80.56 72.16 80.68 74.88 80.04C79.28 79.08 82.64 76.16 84.96 71.28C85.92 69.52 86.64 67.52 87.12 65.28Z" fill="#5B5B5B"/>
</svg>
