<svg width="400" height="400" viewBox="0 0 400 400" fill="none" xmlns="http://www.w3.org/2000/svg">
<path d="M399.822 199.911C399.822 226.164 394.652 252.16 384.605 276.414C374.559 300.668 359.833 322.706 341.27 341.27L286.757 286.757C298.162 275.352 307.208 261.813 313.38 246.912C319.553 232.011 322.729 216.04 322.729 199.911H399.822Z" fill="#ED6057"/>
<path d="M341.27 58.5527C378.76 96.0433 399.822 146.892 399.822 199.911L322.729 199.911C322.729 167.338 309.79 136.098 286.757 113.066L341.27 58.5527Z" fill="#F7E159"/>
<path d="M58.5527 58.5526C77.1161 39.9891 99.1542 25.2638 123.409 15.2173C147.663 5.17084 173.659 -6.57219e-06 199.911 0C226.164 6.5722e-06 252.16 5.17087 276.414 15.2174C300.668 25.2638 322.706 39.9892 341.27 58.5527L286.757 113.066C275.352 101.661 261.813 92.6141 246.912 86.4419C232.011 80.2697 216.04 77.0929 199.911 77.0929C183.783 77.0929 167.812 80.2697 152.911 86.4419C138.01 92.6141 124.47 101.661 113.066 113.066L58.5527 58.5526Z" fill="#81D452"/>
<path d="M341.27 341.27C303.779 378.76 252.931 399.822 199.911 399.822C146.891 399.822 96.0433 378.76 58.5526 341.27C21.062 303.779 2.47537e-06 252.931 0 199.911C-2.47537e-06 146.891 21.062 96.0433 58.5526 58.5526L113.066 113.066C90.0327 136.098 77.0929 167.338 77.0929 199.911C77.0929 232.485 90.0327 263.724 113.066 286.757C136.098 309.79 167.338 322.729 199.911 322.729C232.485 322.729 263.724 309.79 286.757 286.757L341.27 341.27Z" fill="#59A2F7"/>
<mask id="mask0" mask-type="alpha" maskUnits="userSpaceOnUse" x="0" y="0" width="400" height="400">
<path d="M399.822 199.911C399.822 310.319 310.319 399.822 199.911 399.822C89.5033 399.822 0 310.319 0 199.911C0 89.5033 89.5033 0 199.911 0C310.319 0 399.822 89.5033 399.822 199.911ZM77.0929 199.911C77.0929 267.742 132.081 322.729 199.911 322.729C267.742 322.729 322.729 267.742 322.729 199.911C322.729 132.081 267.742 77.0929 199.911 77.0929C132.081 77.0929 77.0929 132.081 77.0929 199.911Z" fill="#545454"/>
</mask>
<g mask="url(#mask0)">
<path d="M246.527 301.042L301.042 246.527L400.02 345.505L345.505 400.02L246.527 301.042Z" fill="#545454"/>
</g>
<path d="M300.679 355.194C285.625 340.14 285.625 315.733 300.679 300.679C315.733 285.625 340.14 285.625 355.194 300.679L388.71 334.195C403.763 349.249 403.763 373.656 388.71 388.71C373.656 403.764 349.249 403.764 334.195 388.71L300.679 355.194Z" fill="#545454"/>
<mask id="mask1" mask-type="alpha" maskUnits="userSpaceOnUse" x="249" y="249" width="134" height="135">
<path d="M382.899 280.919C362.66 326.664 326.014 363.165 280.189 383.221L249.196 312.406C277.31 300.101 299.792 277.709 312.209 249.644L382.899 280.919Z" fill="#545454"/>
</mask>
<g mask="url(#mask1)">
<rect x="227.036" y="281.552" width="77.0995" height="130" transform="rotate(-45 227.036 281.552)" fill="#545454"/>
</g>
</svg>
